/* XPM */
static char *result[] = {
/* columns rows colors chars-per-pixel */
"32 32 238 2 ",
"   c #A8231C",
".  c #BD241E",
"X  c #B23E3B",
"o  c #BE3C3B",
"O  c #F03B19",
"+  c #C62923",
"@  c #C4322D",
"#  c #C7342E",
"$  c #CB3429",
"%  c #C8312C",
"&  c #D7382D",
"*  c #D7392E",
"=  c #D73A2F",
"-  c #DA382A",
";  c #C43530",
":  c #C53530",
">  c #C43631",
",  c #C53631",
"<  c #C63631",
"1  c #C73733",
"2  c #C33834",
"3  c #C13C37",
"4  c #C73C37",
"5  c #CD3D35",
"6  c #C93F38",
"7  c #DA3E32",
"8  c #ED3E22",
"9  c #CD4131",
"0  c #C1433D",
"q  c #CB4138",
"w  c #D04239",
"e  c #D54238",
"r  c #D74439",
"t  c #D4473D",
"y  c #D6473D",
"u  c #D94438",
"i  c #DD473A",
"p  c #D7483C",
"a  c #EC432D",
"s  c #EE462D",
"d  c #EF462E",
"f  c #E74530",
"g  c #EE4630",
"h  c #EE4B35",
"j  c #E84A39",
"k  c #F24931",
"l  c #E9503F",
"z  c #B54241",
"x  c #BC4340",
"c  c #B84846",
"v  c #B15855",
"b  c #B25A57",
"n  c #B45B55",
"m  c #B65B55",
"M  c #BA5952",
"N  c #B35B58",
"B  c #B25D5B",
"V  c #B1615F",
"C  c #B5615F",
"Z  c #AD6B69",
"A  c #AF6D6B",
"S  c #B26B67",
"D  c #B86964",
"F  c #BD6B65",
"G  c #B06E6C",
"H  c #B66F6E",
"J  c #BA726E",
"K  c #A87673",
"L  c #AA7976",
"P  c #AB7976",
"I  c #AB7977",
"U  c #AB7A77",
"Y  c #A57B78",
"T  c #AB7A78",
"R  c #AB7B78",
"E  c #AB7B79",
"W  c #B07371",
"Q  c #B47474",
"!  c #B77F7C",
"~  c #D04941",
"^  c #D54A40",
"/  c #D14C44",
"(  c #D94E42",
")  c #D25F59",
"_  c #E25445",
"`  c #EA5342",
"'  c #E75B4D",
"]  c #C2625D",
"[  c #CE645E",
"{  c #DE6257",
"}  c #D26358",
"|  c #D0605B",
" . c #D0645B",
".. c #D4625C",
"X. c #CE6960",
"o. c #CE6A61",
"O. c #CD6B62",
"+. c #CD6B63",
"@. c #CE6A62",
"#. c #CE6B63",
"$. c #CF6B63",
"%. c #CD6C63",
"&. c #CF6C63",
"*. c #CD6C64",
"=. c #CF6D64",
"-. c #CE6E66",
";. c #CF6E66",
":. c #C96E68",
">. c #D06D65",
",. c #D5766F",
"<. c #D87D76",
"1. c #E56C62",
"2. c #AD817F",
"3. c #0368CD",
"4. c #1F79D2",
"5. c #2279D3",
"6. c #3C8AD8",
"7. c #3F8BD9",
"8. c #569ADD",
"9. c #5C9BDF",
"0. c #72ABE3",
"q. c #79ACE5",
"w. c #AA8E8C",
"e. c #B28381",
"r. c #B68382",
"t. c #BC8480",
"y. c #B18D8C",
"u. c #AA9493",
"i. c #B89E9B",
"p. c #BA9F9E",
"a. c #B8A09F",
"s. c #B7A4A3",
"d. c #BAA3A2",
"f. c #BBA3A2",
"g. c #BAA4A3",
"h. c #BCA5A4",
"j. c #BDA5A4",
"k. c #BDA6A5",
"l. c #BFA7A6",
"z. c #BDAAA8",
"x. c #BFABA9",
"c. c #BEAEAB",
"v. c #CB8985",
"b. c #CD8D87",
"n. c #CD9B95",
"m. c #CC9C96",
"M. c #CE9C97",
"N. c #CD9E98",
"B. c #C0A8A6",
"V. c #CFAAA7",
"C. c #C1ABA9",
"Z. c #C1ACAB",
"A. c #D8A6A2",
"S. c #D8A7A4",
"D. c #D2A8A4",
"F. c #D2A9A5",
"G. c #D3AAA6",
"H. c #D4A9A5",
"J. c #D6A8A4",
"K. c #D8A8A3",
"L. c #D0ACA9",
"P. c #CFB0AD",
"I. c #C0B5B4",
"U. c #C4B7B5",
"Y. c #C9B5B4",
"T. c #CAB5B4",
"R. c #C7B8B7",
"E. c #CEBAB7",
"W. c #C1BCBC",
"Q. c #C8BAB9",
"!. c #CBBAB9",
"~. c #C9BFBE",
"^. c #D1B3B1",
"/. c #8EBAE8",
"(. c #96BDEA",
"). c #A9CBEE",
"_. c #B3CEF0",
"`. c #CBC3C3",
"'. c #CCC1C0",
"]. c #CEC3C3",
"[. c #CBC7C3",
"{. c #D1C2C1",
"}. c #D2C4C3",
"|. c #D3C5C4",
" X c #D3C5C5",
".X c #D3CBCA",
"XX c #D1CDCC",
"oX c #D5CDCC",
"OX c #D9C9C8",
"+X c #D7D3CF",
"@X c #CBD1D0",
"#X c #D6D2D2",
"$X c #D7D7D3",
"%X c #D2D7D7",
"&X c #D7D5D4",
"*X c #D8D5D1",
"=X c #D8DAD9",
"-X c #DBDBDA",
";X c #DDD9D8",
":X c #DEDEDB",
">X c #E0C6C3",
",X c #E0C8C5",
"<X c #E3CAC7",
"1X c #EAD3D1",
"2X c #EBD4D2",
"3X c #ECD4D2",
"4X c #C3DBF3",
"5X c #D0DFF6",
"6X c #DDE1E0",
"7X c #E2E3E2",
"8X c #E0E5E4",
"9X c #E0E6E6",
"0X c #E4E4E4",
"qX c #E5E6E5",
"wX c #E5E7E6",
"eX c #EBE9E8",
"rX c #E8EBEB",
"tX c #EEECEB",
"yX c #E9EEED",
"uX c #ECECEC",
"iX c #F0EDED",
"pX c #E0ECF9",
"aX c #ECF1F1",
"sX c #EEF0FC",
"dX c #F0F1F0",
"fX c gray96",
"gX c #F7F5F5",
"hX c #F6F6F6",
"jX c #F6F7F7",
"kX c gray97",
"lX c #F7F8F8",
"zX c #F8F9F9",
"xX c #FAFBFB",
"cX c #FCFDFE",
"vX c #FEFEFE",
"bX c #FFFEFF",
"nX c #FEFFFF",
"mX c white",
/* pixels */
"3.3.3.3.3.3.3.3.3.3.3.3.3.3.3.3.3.3.3.3.3.3.3.3.3.3.3.3.3.3.3.3.",
"5.5.5.5.5.5.5.5.5.5.5.5.5.5.5.5.5.5.5.5.5.5.5.5.5.5.5.5.5.5.5.5.",
"7.7.7.7.7.7.7.7.7.7.7.7.7.7.7.7.7.7.7.7.7.7.7.7.7.7.7.7.7.7.7.7.",
"9.9.9.9.9.9.9.9.9.9.9.9.9.9.9.9.9.9.9.9.9.9.9.9.9.9.9.9.9.9.9.9.",
"q.q.q.q.q.q.q.q.q.q.q.q.q.q.q.q.q.q.q.q.q.q.q.q.q.q.q.q.q.q.q.q.",
"(.(.(.(.(.(.(.(.(.(.(.(.(.(.(.(.(.(.(.(.(.(.(.(.(.(.(.(.(.(.(.(.",
"_._._._._._._._._._._._._._._._._._._._._._._._._._._._._._._._.",
"5X5X5X5X5X5X5X5X5X5X5X5X5X5X5X5X5X5X5X5X5X5X5X5X5X5X5X5X5X5X5X5X",
"sXsXsXsXsXsXsXsXsXsXsXsXsXsXsXsXsXsXsXsXsXsXsXsXsXsXsXsXsXsXsXsX",
"bXbXbXbXbXbXbXbXbXbXbXbXbXbXbXbXbXbXbXbXbXbXbXbXbXbXbXbXbXbXbXbX",
"mXmXmXmXmXmXmXmXmXmXmXmXmXmXmXmXmXmXmXmXmXmXmXmXmXmXmXmXmXmXmXmX",
"mXmXmXqX>X,X<X3X3X3X3X3X3X3X3X3X3X3X3X3X3X3X3X3X3X3X3X3X2X1XyXmX",
"mXmXkXy.) | -.+.+.+.#.o.X.>.%.*.*.%.=.@.+.%.&.$.O.;.#.o.} 8 :.dX",
"mXmX0XV.F.F.H.F.F.D.E.uXfX`.M.N.N.n..XW.J.m.=X6XP.G.L.iX#X_ ` Z.",
"mXmXB.s k l ..' h g 1.gXeX .& w e * ,.%X9 a v.S.O d f !.<.j { :X",
"mX7XM i ( p.'.u.u = K.aXF r / s.J 5 q OXC.6 y ^ t S 7 ~ p - a.xX",
"mXx.o 2 [ w.$ @ 4 m 9Xr.% 3 x z c 0 < X $XC , : Q 8Xn > ; Z rXmX",
"hXH # + A.hX[.D 1 ] @XW V z.;X+X*Xi.B N c.U.b v ].mXoXA G ~.vXmX",
"XX! t.e.wXmXnXI.  . b.k.j.{.}.|. X^.g.h.l.Q.f.f.R.Y.T.j.d.-XmXmX",
"xXjXzXlXmXmXmX&XK Y E T R I P P L T R R T I R R I I U R 2.tXmXmX",
"mXmXmXmXmXmXmXmXmXmXmXmXmXmXmXmXmXmXmXmXmXmXmXmXmXmXmXmXmXmXmXmX",
"mXmXmXmXmXmXmXmXmXmXmXmXmXmXmXmXmXmXmXmXmXmXmXmXmXmXmXmXmXmXmXmX",
"cXcXcXcXcXcXcXcXcXcXcXcXcXcXcXcXcXcXcXcXcXcXcXcXcXcXcXcXcXcXcXcX",
"pXpXpXpXpXpXpXpXpXpXpXpXpXpXpXpXpXpXpXpXpXpXpXpXpXpXpXpXpXpXpXpX",
"4X4X4X4X4X4X4X4X4X4X4X4X4X4X4X4X4X4X4X4X4X4X4X4X4X4X4X4X4X4X4X4X",
").).).).).).).).).).).).).).).).).).).).).).).).).).).).).).).).",
"/./././././././././././././././././././././././././././././././.",
"0.0.0.0.0.0.0.0.0.0.0.0.0.0.0.0.0.0.0.0.0.0.0.0.0.0.0.0.0.0.0.0.",
"8.8.8.8.8.8.8.8.8.8.8.8.8.8.8.8.8.8.8.8.8.8.8.8.8.8.8.8.8.8.8.8.",
"6.6.6.6.6.6.6.6.6.6.6.6.6.6.6.6.6.6.6.6.6.6.6.6.6.6.6.6.6.6.6.6.",
"4.4.4.4.4.4.4.4.4.4.4.4.4.4.4.4.4.4.4.4.4.4.4.4.4.4.4.4.4.4.4.4.",
"3.3.3.3.3.3.3.3.3.3.3.3.3.3.3.3.3.3.3.3.3.3.3.3.3.3.3.3.3.3.3.3."
};
